<svg width="22" height="20" fill="none" xmlns="http://www.w3.org/2000/svg"><path d="M14.515 19.999V11.68h2.69l.336-3.308h-2.884c0-.554-.033-1.05.009-1.541.04-.47.426-.614.89-.618.628-.005 1.258-.001 1.914-.001V3.32c-1.324.05-2.647-.003-3.932.172-1.662.226-2.665 1.524-2.72 3.252-.016.514-.003 1.029-.003 1.594H9.003v3.333h1.78V20H10.3c-2.432 0-4.865.002-7.297 0-1.829-.003-3-1.065-3-2.726C0 12.426 0 7.579.001 2.733c0-1.666 1.167-2.73 2.993-2.731C8.327-.001 13.657 0 18.99.002c1.837 0 3.008 1.056 3.009 2.717.003 4.862.003 9.724 0 14.586-.001 1.628-1.183 2.69-2.985 2.693-1.481.004-2.963.001-4.498.001z" fill="#fff"/></svg>