<svg width="22" height="20" fill="none" xmlns="http://www.w3.org/2000/svg"><path d="M21.998 9.998c0 1.64.003 3.28-.001 4.919-.008 2.926-2.372 5.075-5.592 5.08-3.608.004-7.216.005-10.824 0-3.195-.006-5.57-2.158-5.576-5.055a2502.43 2502.43 0 010-9.879C.01 2.163 2.382.01 5.575.004 9.197 0 12.82-.002 16.442.004c3.167.006 5.543 2.161 5.555 5.034.007 1.654 0 3.306 0 4.96zM10.98 17.99c1.803 0 3.607.005 5.41-.002 2.045-.008 3.392-1.225 3.397-3.082.009-3.265.008-6.531 0-9.797-.004-1.881-1.347-3.095-3.422-3.099-3.578-.005-7.157-.005-10.735 0-2.073.004-3.415 1.22-3.418 3.1-.007 3.254-.006 6.507 0 9.76.003 1.904 1.342 3.113 3.443 3.118 1.775.006 3.55.002 5.325.002z" fill="#fff"/><path d="M5.501 10.008C5.498 7.206 7.921 5 11.003 5.002c3.08 0 5.5 2.207 5.495 5.01-.005 2.783-2.42 4.98-5.479 4.987-3.083.007-5.513-2.192-5.518-4.991zm8.788.047c.03-1.708-1.347-3.012-3.218-3.044-1.88-.033-3.319 1.216-3.36 2.915-.041 1.725 1.35 3.041 3.24 3.065 1.877.023 3.307-1.235 3.338-2.936zm3.313-5.061c.006.534-.494 1-1.084 1.012-.601.012-1.132-.467-1.123-1.015.007-.536.518-.994 1.105-.992.59 0 1.096.46 1.102.995z" fill="#fff"/></svg>