<svg width="22" height="19" fill="none" xmlns="http://www.w3.org/2000/svg"><path d="M11.712 14.91c-.843.832-1.672 1.67-2.528 2.48-.225.214-.533.334-.804.497l-.107-.104c.021-.421.038-.843.065-1.264.082-1.23.153-2.46.267-3.685.02-.215.181-.458.346-.611 2.937-2.746 5.884-5.48 8.827-8.219.148-.138.274-.301.447-.495-.435-.212-.698-.02-.96.15-2.211 1.43-4.421 2.863-6.63 4.295-1.519.983-3.04 1.962-4.551 2.957-.23.151-.424.169-.676.086-1.473-.485-2.953-.947-4.426-1.435C.571 9.426.014 9.35 0 8.786c-.014-.562.517-.74.938-.91 2.188-.882 4.38-1.748 6.573-2.618 4.264-1.69 8.53-3.38 12.795-5.067.146-.058.295-.116.447-.152.675-.162 1.18.193 1.24.906.024.305-.016.624-.078.926a10026 10026 0 01-3.277 15.917 2.886 2.886 0 01-.171.548c-.249.58-.685.794-1.26.587a2.766 2.766 0 01-.707-.407c-1.52-1.142-3.032-2.294-4.547-3.442-.072-.051-.144-.098-.24-.165z" fill="#fff"/></svg>