<svg width="28" height="20" fill="none" xmlns="http://www.w3.org/2000/svg"><path d="M14.074 20c-3.05-.172-6.065-.339-9.078-.514-2.6-.15-4.416-1.483-4.733-4.652-.345-3.45-.388-6.903.096-10.345C.695 2.095 2.223.666 4.652.43c5.957-.577 11.918-.54 17.88-.087.56.043 1.124.123 1.672.243 1.906.418 3.132 1.807 3.452 3.896.412 2.688.389 5.393.265 8.097a30.82 30.82 0 01-.265 2.779c-.336 2.452-1.797 3.9-4.294 4.095-3.1.24-6.208.37-9.288.547zm-.077-17.954c-3.07.177-6.103.322-9.133.538-1.465.104-2.125.757-2.329 2.175-.48 3.317-.452 6.647-.07 9.968.219 1.894.757 2.35 2.695 2.616.18.025.36.055.54.07 4.523.357 9.052.41 13.584.2a73.462 73.462 0 003.916-.303c1.414-.142 2.071-.77 2.27-2.171.131-.922.233-1.85.27-2.778.106-2.526.147-5.052-.259-7.56-.237-1.464-.87-2.103-2.362-2.21-3.044-.218-6.096-.368-9.122-.545z" fill="#fff"/><path d="M11.27 5.62l7.598 4.326-7.598 4.33V5.62z" fill="#fff"/></svg>